<?xml version="1.0" encoding="UTF-8"?>
<svg id="Layer_1" data-name="Layer 1" xmlns="http://www.w3.org/2000/svg" viewBox="0 0 446.92 142.58">
  <defs>
    <style>
      .cls-1 {
        fill: #fff;
      }

      .cls-2 {
        fill: #0db78e;
      }
    </style>
  </defs>
  <path class="cls-2" d="M126.41,2.44l-52.57,29.43c-2.9,1.67-6.48,1.67-9.38,0L14.1,1.27C7.83-2.34,0,2.18,0,9.42v105.36c0,1.8.88,3.5,2.36,4.53l16.59,11.62c3.67,2.57,8.7-.06,8.7-4.53V60.3c0-4.25,4.6-6.91,8.28-4.8l16.75,9.61c1.72.99,2.78,2.82,2.78,4.81l-.13,67.12c0,4.27,4.62,6.94,8.31,4.79l16.54-9.62c1.72-1,2.78-2.86,2.75-4.85l-.72-58.2c-.02-2,1.03-3.86,2.77-4.86l16.24-9.36c3.64-2.1,8.2.47,8.29,4.67l.83,39.27c.15,7.14,7.9,11.51,14.09,7.95l11.35-7.32c2.92-1.68,4.72-4.79,4.72-8.15v-32.3h0V10.59c0-7.23-7.82-11.76-14.09-8.15Z"/>
  <g>
    <path class="cls-1" d="M216.96,79.2l-18.92-35.49c-.48-.9-1.42-1.46-2.44-1.46h-7.44c-1.53,0-2.77,1.24-2.77,2.77v52.55c0,1.53,1.24,2.77,2.77,2.77h6.33c1.53,0,2.77-1.24,2.77-2.77v-20.6c0-2.88,3.85-3.84,5.21-1.3l12.35,23.2c.48.9,1.42,1.47,2.44,1.47h4.31c1.02,0,1.96-.57,2.44-1.47l12.27-23.12c1.35-2.55,5.21-1.59,5.21,1.3v20.52c0,1.53,1.24,2.77,2.77,2.77h6.33c1.53,0,2.77-1.24,2.77-2.77v-52.55c0-1.53-1.24-2.77-2.77-2.77h-7.44c-1.02,0-1.96.56-2.44,1.47l-18.86,35.48c-1.04,1.96-3.84,1.96-4.88,0Z"/>
    <path class="cls-1" d="M308.44,77.6c0,2.27-.32,4.22-.95,5.85-.64,1.63-1.55,2.97-2.74,4.02-1.19,1.05-2.65,1.83-4.4,2.32-1.74.5-3.75.75-6.02.75s-4.2-.25-5.97-.75c-1.77-.5-3.26-1.27-4.48-2.32-1.22-1.05-2.14-2.39-2.78-4.02-.64-1.63-.95-3.58-.95-5.85v-32.58c0-1.53-1.24-2.77-2.77-2.77h-6.33c-1.53,0-2.77,1.24-2.77,2.77v30.59c0,4.98.59,9.14,1.78,12.49,1.19,3.35,2.89,6.02,5.1,8.01,2.21,1.99,4.94,3.4,8.17,4.23,3.24.83,6.9,1.24,10.99,1.24s7.74-.41,10.95-1.24c3.21-.83,5.93-2.24,8.17-4.23,2.24-1.99,3.94-4.66,5.1-8.01,1.16-3.35,1.74-7.51,1.74-12.49v-30.59c0-1.53-1.24-2.77-2.77-2.77h-6.33c-1.53,0-2.77,1.24-2.77,2.77v32.58Z"/>
    <path class="cls-1" d="M379.22,70.63c-2.05-1.44-4.54-2.59-7.47-3.44-2.93-.86-6.28-1.56-10.04-2.12-2.71-.44-5.05-.86-7.01-1.24-1.96-.39-3.57-.82-4.81-1.29-1.24-.47-2.16-1.06-2.74-1.78-.58-.72-.87-1.58-.87-2.57s.22-1.87.66-2.61c.44-.75,1.16-1.37,2.16-1.87,1-.5,2.28-.87,3.86-1.12,1.58-.25,3.5-.37,5.77-.37,1.94,0,3.8.08,5.6.25,1.8.17,3.37.55,4.73,1.16,1.35.61,2.43,1.48,3.24,2.61.45.64.78,1.41.98,2.29.29,1.29,1.39,2.23,2.71,2.23h5.98c1.64,0,2.92-1.42,2.75-3.05-.24-2.35-.77-4.42-1.59-6.2-1.16-2.52-2.82-4.55-4.98-6.1-2.16-1.55-4.78-2.67-7.88-3.36-3.1-.69-6.61-1.04-10.54-1.04-8.91,0-15.43,1.4-19.58,4.19-4.15,2.79-6.22,7.4-6.22,13.81,0,3.04.55,5.59,1.66,7.63,1.11,2.05,2.66,3.75,4.65,5.1,1.99,1.36,4.37,2.43,7.14,3.24,2.77.8,5.81,1.51,9.13,2.12,1.88.33,3.82.64,5.81.91,1.99.28,3.8.65,5.43,1.12,1.63.47,2.96,1.12,3.98,1.95,1.02.83,1.54,1.96,1.54,3.4,0,2.16-1.07,3.71-3.19,4.65-2.13.94-5.38,1.41-9.75,1.41-1.99,0-3.93-.1-5.81-.29-1.88-.19-3.53-.59-4.94-1.2-1.41-.61-2.53-1.48-3.36-2.61-.48-.66-.82-1.45-1.02-2.38-.28-1.29-1.39-2.23-2.71-2.23h-5.97c-1.64,0-2.92,1.42-2.75,3.06.25,2.35.79,4.41,1.63,6.2,1.19,2.52,2.88,4.55,5.06,6.1,2.18,1.55,4.87,2.67,8.05,3.36,3.18.69,6.73,1.04,10.66,1.04,9.13,0,15.81-1.38,20.04-4.15,4.23-2.77,6.35-7.27,6.35-13.52,0-3.15-.54-5.79-1.62-7.92-1.08-2.13-2.64-3.91-4.69-5.35Z"/>
    <path class="cls-1" d="M411.49,86.78v-7.33c0-1.53,1.24-2.77,2.77-2.77h25.75c1.53,0,2.77-1.24,2.77-2.77v-5.25c0-1.53-1.24-2.77-2.77-2.77h-25.75c-1.53,0-2.77-1.24-2.77-2.77v-7.33c0-1.53,1.24-2.77,2.77-2.77h29.07c1.53,0,2.77-1.24,2.77-2.77v-5.25c0-1.53-1.24-2.77-2.77-2.77h-40.93c-1.53,0-2.77,1.24-2.77,2.77v52.55c0,1.53,1.24,2.77,2.77,2.77h41.76c1.53,0,2.77-1.24,2.77-2.77v-5.25c0-1.53-1.24-2.77-2.77-2.77h-29.9c-1.53,0-2.77-1.24-2.77-2.77Z"/>
  </g>
</svg>